<svg id="Layer_1" data-name="Layer 1" xmlns="http://www.w3.org/2000/svg" viewBox="0 0 62.26 83.05"><defs><style>.cls-1{fill:#fff;}</style></defs><path class="cls-1" d="M57.63,8.94c-.78,6.81-1.56,13.56-2.33,20.17A75.58,75.58,0,0,0,7,29.12L4.63,8.94Z"/><path class="cls-1" d="M4.5,40.46c6.24,3.63,13,4.63,19.86,5.23a80.64,80.64,0,0,0,18.37-.52,41.28,41.28,0,0,0,13.44-3.84c.49-.25.95-.54,1.64-.94-.22,1.46-.36,2.76-.63,4C56,50.09,53.53,55,48.86,58.64a24.4,24.4,0,0,1-11.71,4.69,38.31,38.31,0,0,1-15.59-.75C12.92,60.22,7.7,54.51,5.44,46c-.31-1.18-.5-2.38-.71-3.58C4.62,41.79,4.59,41.18,4.5,40.46Z"/><path class="cls-1" d="M48.22,62.83c.14,1.36.3,2.79.44,4.22Q49.35,73.88,50,80.7c.19,1.82-.28,2.35-2.14,2.35H14.2c-1.62,0-2.14-.56-2-2.18q.85-8.73,1.74-17.44c0-.23.09-.45.12-.59C25.47,68.14,36.79,68.12,48.22,62.83Z"/><path class="cls-1" d="M31.09,5.93h-29C.41,5.93,0,5.52,0,3.83c0-.76,0-1.51,0-2.26A1.47,1.47,0,0,1,1.51,0c.23,0,.47,0,.7,0H60c1.84,0,2.22.38,2.22,2.25V3.64c0,1.94-.34,2.29-2.25,2.29H31.09Z"/><path class="cls-1" d="M30.52,43a63.62,63.62,0,0,1-18.73-2.52,25.61,25.61,0,0,1-4.85-2.06c-3.33-1.87-3.36-3.9,0-5.67a31.33,31.33,0,0,1,6.94-2.64,74,74,0,0,1,24-1.66,50.4,50.4,0,0,1,13.92,2.68,22.21,22.21,0,0,1,4.67,2.41c1.85,1.27,1.8,2.68.06,4.08a18.06,18.06,0,0,1-6.48,3C44.16,42.38,38.12,42.92,30.52,43Zm.64-11.88a74.18,74.18,0,0,0-15.08,1.51,3,3,0,0,0-2.65,3,2.93,2.93,0,0,0,2.73,3c3.11.48,6.22,1,9.35,1.25a72.8,72.8,0,0,0,20.72-1.25,3,3,0,0,0,0-5.91A73.32,73.32,0,0,0,31.16,31.13Z"/></svg>