<svg width="56" height="55" viewBox="0 0 56 55" fill="none" xmlns="http://www.w3.org/2000/svg">
<path d="M12.0271 33.2948H17.9683C18.8034 33.2948 19.4953 32.6299 19.4953 31.7749V27.5003C19.4953 26.6692 18.8272 25.9805 17.9683 25.9805H12.0271C11.1919 25.9805 10.5 26.6454 10.5 27.5003V31.7749C10.5239 32.6061 11.1919 33.2948 12.0271 33.2948Z" fill="white"/>
<path d="M25.0271 33.2948H30.9683C31.8034 33.2948 32.4953 32.6299 32.4953 31.7749V27.5003C32.4953 26.6692 31.8272 25.9805 30.9683 25.9805H25.0271C24.1919 25.9805 23.5 26.6454 23.5 27.5003V31.7749C23.5 32.6061 24.1919 33.2948 25.0271 33.2948Z" fill="white"/>
<path d="M23.5 43.2203C23.5 44.0514 24.1681 44.7401 25.0271 44.7401H30.9683C31.8034 44.7401 32.4953 44.0752 32.4953 43.2203V38.9456C32.4953 38.1145 31.8272 37.4258 30.9683 37.4258H25.0271C24.1919 37.4258 23.5 38.0907 23.5 38.9456V43.2203Z" fill="white"/>
<path d="M19.4953 43.2203V38.9456C19.4953 38.1145 18.8272 37.4258 17.9683 37.4258H12.0271C11.1919 37.4258 10.5 38.0907 10.5 38.9456V43.2203C10.5 44.0514 11.1681 44.7401 12.0271 44.7401H17.9683C18.8034 44.7164 19.4953 44.0514 19.4953 43.2203Z" fill="white"/>
<path d="M38.0349 33.2948H43.9761C44.8112 33.2948 45.5031 32.6299 45.5031 31.7749V27.5003C45.5031 26.6692 44.835 25.9805 43.9761 25.9805H38.0349C37.1998 25.9805 36.5078 26.6454 36.5078 27.5003V31.7749C36.5078 32.6061 37.1759 33.2948 38.0349 33.2948Z" fill="white"/>
<path d="M36.5078 43.2203C36.5078 44.0514 37.1759 44.7401 38.0349 44.7401H43.9761C44.8112 44.7401 45.5031 44.0752 45.5031 43.2203V38.9456C45.5031 38.1145 44.835 37.4258 43.9761 37.4258H38.0349C37.1998 37.4258 36.5078 38.0907 36.5078 38.9456V43.2203Z" fill="white"/>
<path d="M55.7853 10.9003C55.0456 8.07427 52.5403 5.96071 49.51 5.79447C49.3907 5.79447 49.2714 5.79447 49.1521 5.79447H43.9983V1.99482C43.9983 0.902418 43.0916 0 41.994 0H36.7686C35.6711 0 34.7644 0.902418 34.7644 1.99482V5.79447H21.2356V1.99482C21.2356 0.902418 20.3289 0 19.2314 0H14.006C12.9084 0 12.0017 0.902418 12.0017 1.99482V5.79447H6.82403C6.70473 5.79447 6.58543 5.79447 6.46613 5.79447C3.81764 5.93696 1.52706 7.59931 0.548786 9.95035C0.501065 10.0453 0.453345 10.1641 0.429484 10.2591C0.357904 10.4728 0.286323 10.6865 0.238602 10.9003C0.0715807 11.4227 0 11.9927 0 12.5864V24.579V48.1844C0 51.9365 3.07797 54.9763 6.82403 54.9763H14.6979H41.2782H49.1521C52.922 54.9763 55.9761 51.9128 55.9761 48.1844V24.579V12.5864C56 11.9927 55.9284 11.4227 55.7853 10.9003ZM51.4427 48.1844C51.4427 49.443 50.4167 50.4404 49.176 50.4404H42.853H13.147H6.82403C5.5833 50.4404 4.55731 49.4193 4.55731 48.1844V26.8351V20.2569H51.4427V26.8351V48.1844Z" fill="white"/>
</svg>
