<svg id="Layer_1" data-name="Layer 1" xmlns="http://www.w3.org/2000/svg" viewBox="0 0 77.9 83.92"><defs><style>.cls-1{fill:#fff;}</style></defs><path class="cls-1" d="M48.2,60.84A9.12,9.12,0,0,1,31,60.57c-9.4,3-15.72,11.28-18.5,21.15a1.75,1.75,0,0,0,1.73,2.2h50a1.75,1.75,0,0,0,1.72-2.2C63.21,72.13,57.16,64.08,48.2,60.84Z"/><path class="cls-1" d="M77.43,14.1,40.73.32a5.07,5.07,0,0,0-3.56,0L.46,14.1a.71.71,0,0,0,0,1.33L4.59,17V30.72H4.06a.76.76,0,0,0-.76.76V39.8a.76.76,0,0,0,.76.76H5.13a.76.76,0,0,0,.75-.76V33.37H7.5V39.8a.76.76,0,0,0,.76.76H9.33a.76.76,0,0,0,.76-.76V31.48a.76.76,0,0,0-.76-.76H9V18.63l5.92,2.23v8.69A23.77,23.77,0,1,0,62.2,33c0-.6,0-1.19-.07-1.78l0-5.69a22.94,22.94,0,0,0-.39-4.26l15.67-5.88A.71.71,0,0,0,77.43,14.1Zm-39,37.22a18.21,18.21,0,0,1-11.11-3.77c-5.71-4.61-4.8-12.78-2.93-16.9a4.5,4.5,0,0,1,7.65-1c3.65,4.6,12.34,5.77,18.56,2.73a.47.47,0,0,0,.25-.49.46.46,0,0,0-.37-.4A4.64,4.64,0,0,1,46.58,27l.06,0c6.84.29,9.43,3.39,9.75,9.42A18.28,18.28,0,0,1,38.43,51.32Z"/></svg>