<svg xmlns="http://www.w3.org/2000/svg" viewBox="0 0 84.64 83.93"><defs><style>.cls-1{isolation:isolate;}.cls-2{mix-blend-mode:multiply;}.cls-3{fill:#fff;}</style></defs><g class="cls-1"><g id="Layer_1" data-name="Layer 1"><g class="cls-2"><path class="cls-3" d="M31.13,26.44A79.41,79.41,0,0,0,0,32.43v19L16.33,46.6l.41-.81c1.13-5.17,2.6-7.77,6.19-8.57a43.91,43.91,0,0,1,15.34,0c3.89.87,5.29,3.85,6.46,9.94l17.53,4.29v-19A79.41,79.41,0,0,0,31.13,26.44Z"/><path class="cls-3" d="M31.13,52.31A79.41,79.41,0,0,0,0,58.3V83.93H5.74l4.58-6.41A146.35,146.35,0,0,0,31.13,79h0a146.2,146.2,0,0,0,20.8-1.46l4.59,6.41h5.74V58.3A79.41,79.41,0,0,0,31.13,52.31Z"/><polygon class="cls-3" points="53.84 17.98 66.51 9.48 67.93 5.96 53.07 0 50.99 5.18 58.21 8.08 45.47 16.61 44.08 20.08 59.87 26.41 61.95 21.23 53.84 17.98"/><polygon class="cls-3" points="74.11 30.18 83.66 23.15 84.64 20.36 72.89 16.24 71.45 20.34 77.16 22.34 67.55 29.4 66.59 32.15 79.08 36.53 80.52 32.43 74.11 30.18"/><polygon class="cls-3" points="72.83 46.54 77.57 42.44 77.97 40.93 71.61 39.25 71.02 41.47 74.11 42.29 69.34 46.4 68.95 47.89 75.71 49.68 76.3 47.46 72.83 46.54"/></g></g></g></svg>