<svg width="83" height="53" viewBox="0 0 83 53" xmlns="http://www.w3.org/2000/svg" fill="currentColor">
<path d="M38.7178 0C40.2553 0 41.5366 0.257281 42.3053 1.02913C44.3553 2.57282 45.8928 6.43204 46.6616 11.5777L46.9178 13.6359L67.1616 13.3786C67.9303 13.3786 68.4428 13.3786 68.9553 13.3786C76.1303 13.3786 82.0241 18.7816 82.0241 25.4709V28.301C82.0241 34.9903 76.1303 40.3932 68.9553 40.3932C67.9303 40.3932 67.1616 40.3932 66.1366 40.1359L46.1491 39.3641L45.6366 41.4223C44.6116 46.0534 43.3303 49.3981 42.0491 51.199C41.7928 51.7136 40.7678 52.7427 37.6928 52.7427C25.9053 52.7427 1.30534 35.7621 0.0240864 27.0146C-0.232164 24.699 1.56159 21.3544 5.14909 17.4951C13.8616 8.49029 30.2616 0 38.7178 0Z" fill="white"/>
</svg>
