<svg width="75" height="45" viewBox="0 0 75 45" fill="none" xmlns="http://www.w3.org/2000/svg">
<path fill-rule="evenodd" clip-rule="evenodd" d="M10.6471 45L6.24125 21.9784C5.91618 22.0459 5.57111 22.0822 5.22104 22.0822C2.33547 22.0822 0 19.6534 0 16.6642C0 13.6697 2.33547 11.2409 5.22104 11.2409C8.10662 11.2409 10.4421 13.6697 10.4421 16.6642C10.4421 18.3923 9.66193 19.9389 8.44169 20.9301C10.5721 23.3018 13.7628 26.2029 18.0436 28.367C25.7802 32.2748 32.2665 25.113 36.2322 10.6856C33.9618 10.0992 32.2765 7.96621 32.2765 5.42844C32.2765 2.4236 34.6119 0 37.4975 0C40.3831 0 42.7185 2.4236 42.7185 5.41806C42.7185 7.95583 41.0332 10.0888 38.7628 10.6752C42.7285 25.1026 49.2148 32.2696 56.9514 28.3566C61.2322 26.1925 64.4229 23.2914 66.5533 20.9197C65.3331 19.9285 64.5529 18.3872 64.5529 16.6538C64.5529 13.6593 66.8934 11.2305 69.779 11.2305C72.6645 11.2305 75 13.6593 75 16.6538C75 19.6483 72.6645 22.077 69.779 22.077C69.4289 22.077 69.0888 22.0407 68.7588 21.9732L64.3529 44.9948H10.6471V45Z" fill="white"/>
</svg>
