<svg id="Layer_1" data-name="Layer 1" xmlns="http://www.w3.org/2000/svg" viewBox="0 0 73.51 83.89"><defs><style>.cls-1{fill:#fff;}</style></defs><path class="cls-1" d="M33.44,5.75a4.31,4.31,0,0,0-5.68-.48C26.32,6.5,26,8.75,25.55,10.48l-.45,1.6A10.27,10.27,0,0,0,21.39,6.7a4.71,4.71,0,0,0-6.55.81,13,13,0,0,0-2.35,5.57,25.94,25.94,0,0,0-1.82-3.43c-1.1-1.73-3-3.71-5.18-3.89C1.23,5.42.39,11.22.14,14.28A26.64,26.64,0,0,0,1.56,26.43C3.33,31,6.6,36,11.71,36.4q-.2,9.12-.4,18.24c-.13,6.17-.73,12.53-.3,18.69.32,4.51,2.53,9.59,7.5,10.46,4.35.75,7.73-2.91,8.78-6.77.71-2.64.54-5.48.5-8.18,0-3.27-.09-6.54-.13-9.82l-.27-19.14c0-1.26-.57-3.92.42-4.8.51-.46,1.54-.56,2.16-.92a10,10,0,0,0,4.13-5c1.94-4.81,2-10.59,1.61-15.68C35.5,10.9,35.38,7.64,33.44,5.75Z"/><path class="cls-1" d="M73.41,19.16A18,18,0,0,0,66.09,2.72C55.63-4.66,41.1,4,40.16,16.06,39.64,22.73,43,28.8,48.21,32.71a2.11,2.11,0,0,0,0,.26q-.51,15.6-.54,31.21c0,5.46-1.43,17.38,6.73,18.09a8.52,8.52,0,0,0,7.82-4.56c2.12-3.79,1.7-8.51,1.7-12.68l0-30.49C69,30.91,72.72,25.47,73.41,19.16Z"/></svg>