<svg width="139" height="111" viewBox="0 0 139 111" fill="none" xmlns="http://www.w3.org/2000/svg">
<path d="M63.224 40.5511C73.2758 40.5511 81.4245 32.3409 81.4245 22.2131C81.4245 12.0852 73.2758 3.875 63.224 3.875C53.1721 3.875 45.0234 12.0852 45.0234 22.2131C45.0234 32.3409 53.1721 40.5511 63.224 40.5511Z" fill="white"/>
<path d="M63.224 40.5511C73.2758 40.5511 81.4245 32.3409 81.4245 22.2131C81.4245 12.0852 73.2758 3.875 63.224 3.875C53.1721 3.875 45.0234 12.0852 45.0234 22.2131C45.0234 32.3409 53.1721 40.5511 63.224 40.5511Z" fill="white"/>
<path d="M106.944 6.27274C105.983 1.4153 100.721 -1.47166 95.9618 0.773757C92.713 2.3318 91.1115 6.04361 91.7979 9.61795C94.1773 22.0823 88.9609 34.2259 79.3977 41.2829C77.7504 42.4744 75.7828 43.1159 73.7695 43.1159L51.1197 43.1617C47.5964 43.1617 44.3018 44.7198 41.9225 47.3318C34.1437 55.901 21.9723 59.8878 10.1669 56.6342C6.46058 55.5803 2.38818 57.1841 0.740923 60.7126C-1.31815 65.2035 1.10698 70.29 5.63695 71.5731C19.1811 75.4682 33.0913 72.9479 44.0731 65.7992C44.4391 65.5701 44.9424 65.7992 44.9424 66.3033V108.37V110.616H81.2737V108.37V60.1627C81.2737 59.1546 81.8228 58.1923 82.6922 57.734C100.721 48.1566 111.153 27.398 106.944 6.27274Z" fill="white"/>
<path d="M100.867 81.9514C109.122 81.9514 115.813 75.219 115.813 66.9142C115.813 58.6093 109.122 51.877 100.867 51.877C92.6132 51.877 85.9219 58.6093 85.9219 66.9142C85.9219 75.219 92.6132 81.9514 100.867 81.9514Z" fill="white"/>
<path d="M100.867 81.9514C109.122 81.9514 115.813 75.219 115.813 66.9142C115.813 58.6093 109.122 51.877 100.867 51.877C92.6132 51.877 85.9219 58.6093 85.9219 66.9142C85.9219 75.219 92.6132 81.9514 100.867 81.9514Z" fill="white"/>
<path d="M84.9284 94.3254V110.615H114.663V94.5069C126.492 90.1508 135.719 79.7597 137.957 66.51C138.505 63.2429 136.312 60.1573 133.069 59.6128C129.827 59.0683 126.721 61.2464 126.173 64.5134C123.935 77.7632 111.328 86.7476 98.0827 84.4788C84.8371 82.2554 75.8848 69.6409 78.1229 56.3458C78.671 53.0787 76.4786 49.9931 73.2357 49.4486C69.9928 48.9041 66.8869 51.0822 66.3388 54.3492C63.644 70.14 71.6828 85.341 85.1111 92.5104C84.9741 93.0549 84.9284 93.6901 84.9284 94.3254Z" fill="white"/>
</svg>
