<svg width="49" height="49" viewBox="0 0 49 49" fill="none" xmlns="http://www.w3.org/2000/svg">
<path d="M7.32589 12.1798C5.58145 12.1798 3.93047 12.211 2.31063 12.1798C0.628499 12.1175 -0.461774 10.4042 0.192389 8.84669C0.566197 7.91217 1.28266 7.41376 2.31063 7.32031C2.52869 7.32031 2.71559 7.32031 2.93365 7.32031C17.2941 7.32031 31.6545 7.32031 45.9838 7.32031C46.3577 7.32031 46.7626 7.32031 47.1053 7.41376C48.289 7.72527 48.9743 8.84669 48.8497 10.0927C48.7251 11.2141 47.7283 12.1487 46.5446 12.1487C45.1116 12.1798 43.6787 12.1487 42.2458 12.1487C42.0277 12.1487 41.8408 12.1487 41.5293 12.1487C41.5293 12.429 41.5293 12.6782 41.5293 12.9274C41.5293 22.3661 41.5293 31.8359 41.5293 41.2745C41.5293 44.7011 39.5357 47.5358 36.3894 48.4703C35.6418 48.6884 34.8631 48.813 34.0843 48.813C27.6673 48.8441 21.2191 48.8441 14.7709 48.813C10.4721 48.813 7.32589 45.6356 7.29474 41.3057C7.29474 31.867 7.29474 22.3972 7.29474 12.9586C7.32589 12.7717 7.32589 12.5225 7.32589 12.1798ZM17.076 28.0978C17.076 30.0914 17.0449 32.1162 17.1072 34.1099C17.1072 34.6394 17.2941 35.2001 17.5745 35.6674C18.1352 36.5396 19.2566 36.8823 20.2534 36.5708C21.3125 36.2281 21.9667 35.2936 21.9667 34.0476C21.9667 30.0914 21.9667 26.1353 21.9667 22.2103C21.9667 21.8677 21.9044 21.525 21.8109 21.2135C21.4371 20.1232 20.3157 19.4379 19.1943 19.6248C17.9483 19.8117 17.076 20.7774 17.076 22.0234C17.076 23.9859 17.076 26.0419 17.076 28.0978ZM31.748 28.1289C31.748 26.1353 31.748 24.1728 31.748 22.1792C31.748 20.6528 30.72 19.5625 29.3182 19.5314C27.9165 19.5314 26.8573 20.6216 26.8573 22.148C26.8573 26.1042 26.8573 30.0914 26.8573 34.0476C26.8573 35.5428 27.9476 36.6642 29.3182 36.6642C30.72 36.6642 31.748 35.5428 31.748 34.0164C31.748 32.0539 31.748 30.0914 31.748 28.1289Z" fill="white"/>
<path d="M24.3957 4.8595C22.7447 4.8595 21.0625 4.89065 19.4116 4.8595C18.1967 4.82835 17.231 3.89383 17.1064 2.74126C16.9507 1.55753 17.6983 0.436109 18.8508 0.124603C19.0377 0.0311506 19.2247 0 19.4116 0C22.7447 0 26.0778 0 29.4109 0C30.6258 0 31.5915 0.93452 31.7161 2.11824C31.8718 3.30197 31.1242 4.42339 29.9716 4.7349C29.6601 4.82835 29.3175 4.82835 29.006 4.82835C27.4796 4.8595 25.9532 4.8595 24.3957 4.8595Z" fill="white"/>
</svg>
